<?xml version="1.0" encoding="UTF-8" standalone="no"?>
<!-- Created with Inkscape (http://www.inkscape.org/) -->

<svg
   width="128mm"
   height="128mm"
   viewBox="0 0 128 128"
   version="1.1"
   id="svg1"
   xml:space="preserve"
   inkscape:version="1.4.2 (ebf0e940d0, 2025-05-08)"
   sodipodi:docname="petcare-logo.svg"
   xmlns:inkscape="http://www.inkscape.org/namespaces/inkscape"
   xmlns:sodipodi="http://sodipodi.sourceforge.net/DTD/sodipodi-0.dtd"
   xmlns="http://www.w3.org/2000/svg"
   xmlns:svg="http://www.w3.org/2000/svg"><sodipodi:namedview
     id="namedview1"
     pagecolor="#ffffff"
     bordercolor="#000000"
     borderopacity="0.25"
     inkscape:showpageshadow="2"
     inkscape:pageopacity="0.0"
     inkscape:pagecheckerboard="0"
     inkscape:deskcolor="#d1d1d1"
     inkscape:document-units="mm"
     showguides="true"
     inkscape:zoom="1.0669298"
     inkscape:cx="279.77474"
     inkscape:cy="279.77474"
     inkscape:window-width="1896"
     inkscape:window-height="1016"
     inkscape:window-x="0"
     inkscape:window-y="0"
     inkscape:window-maximized="1"
     inkscape:current-layer="layer1"><sodipodi:guide
       position="0.045155231,-157.59281"
       orientation="1,0"
       id="guide262144"
       inkscape:locked="false" /><sodipodi:guide
       position="32.321407,-159.93813"
       orientation="0,-1"
       id="guide262145"
       inkscape:locked="false" /></sodipodi:namedview><defs
     id="defs1" /><g
     inkscape:label="Warstwa 1"
     inkscape:groupmode="layer"
     id="layer1"><path
       style="fill:#000000;stroke-width:0.934079"
       d="M 10.164141,121.73857 C 5.0227995,118.52658 1.1631384,115.95673 0.9773612,115.62181 0.48366766,114.73177 0.50566056,99.641794 1.0030857,97.974509 1.7604718,95.435868 4.1286092,93.6737 6.7893433,93.668871 c 2.6077012,-0.0047 4.3662797,0.980717 5.6513937,3.166846 0.664723,1.130768 0.681154,1.254468 0.760868,5.727853 l 0.08147,4.57212 2.381853,1.40856 c 1.31002,0.77471 2.397964,1.38638 2.417652,1.35928 0.01969,-0.0271 -0.178527,-1.21703 -0.440478,-2.64427 -0.583475,-3.17908 -0.704033,-10.689317 -0.22018,-13.716369 1.873098,-11.718398 7.449442,-21.035381 16.957931,-28.333389 2.814228,-2.159992 7.87773,-5.017313 11.301206,-6.377229 L 47.102124,58.26778 V 46.842693 c 0,-10.754568 -0.02653,-11.449093 -0.451958,-11.834102 -0.358052,-0.324032 -0.973057,-0.409015 -2.959948,-0.409015 h -2.507991 l -2.992357,1.977129 c -4.128788,2.728006 -4.018262,2.738272 -7.448532,-0.691994 -2.224089,-2.22409 -2.669131,-2.794476 -2.669131,-3.420879 0,-0.583566 1.217603,-2.460663 5.442594,-8.390469 2.993427,-4.201292 5.674879,-7.833338 5.958782,-8.071211 0.453397,-0.37989 1.110075,-0.432497 5.398316,-0.432497 4.417814,0 4.938181,0.04446 5.471525,0.467843 0.324168,0.257311 1.420539,2.147943 2.436379,4.201404 l 1.846981,3.733571 h 11.381683 11.381689 l 1.846983,-3.733571 c 1.015839,-2.053461 2.112206,-3.944093 2.436378,-4.201404 0.522524,-0.414759 1.027244,-0.466946 4.448552,-0.459978 2.64223,0.0056 3.98339,0.102795 4.253152,0.308919 0.772269,0.590113 9.368102,13.785524 9.368102,14.380906 0,0.702054 -4.694243,7.891073 -5.305925,8.125798 -1.087545,0.417337 -1.888693,0.114901 -4.811738,-1.816438 -2.931411,-1.93687 -3.023549,-1.977129 -4.524073,-1.977129 h -1.531721 l -1.428226,1.413328 -1.428235,1.413327 v 13.291611 13.291602 h 0.66796 c 0.52371,0 1.342216,-0.667147 3.790148,-3.089271 2.700628,-2.672158 3.229971,-3.089271 3.920414,-3.089271 0.439018,0 0.995551,0.105607 1.23674,0.234688 0.241188,0.12908 1.957693,2.774094 3.81445,5.877805 3.061753,5.117951 3.37593,5.751603 3.37593,6.80885 0,0.641161 0.05894,1.16574 0.131014,1.16574 0.07202,0 0.791595,-0.278038 1.598976,-0.617856 0.807373,-0.339818 1.564833,-0.617856 1.683243,-0.617856 0.20401,0 1.55604,3.084778 1.56058,3.56056 9.3e-4,0.12328 -1.08965,0.689752 -2.42406,1.258821 l -2.426183,1.034671 -0.12357,2.819023 c -0.109717,2.502949 -0.210261,3.001962 -0.896706,4.45071 l -0.773138,1.631687 3.280468,0.925635 3.280469,0.925644 -0.49341,1.767652 c -0.27137,0.972208 -0.57962,1.859565 -0.68501,1.971888 -0.10538,0.112332 -2.008772,-0.30253 -4.229751,-0.921918 l -4.038153,-1.126153 -0.626297,0.586489 c -0.825402,0.772932 -3.12192,2.217159 -4.34604,2.733116 l -0.975954,0.411369 0.583445,0.477492 c 0.558093,0.456756 1.084718,0.477502 12.119806,0.477502 12.318464,0 12.726554,0.03353 15.678244,1.289188 2.51072,1.068054 4.27341,2.283618 6.34192,4.373434 3.10622,3.138217 4.55534,5.964867 5.20877,10.160247 0.52822,3.39152 -0.20299,8.25333 -1.73413,11.53021 l -0.71339,1.52677 -4.72823,2.36572 -4.72823,2.36571 H 67.037141 19.030543 Z m 49.445126,0.54342 c -0.210887,-1.05447 -1.063999,-2.26521 -1.992321,-2.82754 -0.628202,-0.38053 -1.454781,-0.47639 -4.996644,-0.57953 -5.500297,-0.16015 -5.381488,-0.0747 -5.596342,-4.02505 -0.26442,-4.86166 -1.381568,-7.56297 -4.374108,-10.57677 -2.913108,-2.9338 -6.485939,-4.413003 -10.685164,-4.423801 l -1.668207,-0.0047 v -2.100707 -2.100697 l 1.668207,0.0019 c 8.994999,0.01009 16.681777,6.016145 18.699112,14.610615 0.20337,0.86641 0.437134,2.20378 0.519477,2.97192 l 0.149715,1.39663 3.136328,0.0901 c 2.750947,0.0791 3.303353,0.16892 4.49561,0.73111 2.499886,1.17877 4.179249,3.34939 4.708432,6.08579 l 0.29871,1.54463 h 2.068555 2.068546 v -6.30211 -6.30212 h -3.916304 c -2.153958,0 -4.934312,-0.0723 -6.178541,-0.16058 l -2.262243,-0.16058 -1.42e-4,-2.00191 -1.42e-4,-2.00191 6.178691,0.0839 6.178681,0.0839 V 99.788229 93.261975 L 66.688112,92.816336 C 64.999307,92.286741 63.098876,91.355548 62.004051,90.5212 l -0.791576,-0.603247 -4.366494,1.636834 c -2.401573,0.900265 -4.47393,1.660167 -4.605237,1.688666 -0.305561,0.06632 -1.735081,-3.579411 -1.490967,-3.80245 0.100674,-0.09201 1.770717,-0.755156 3.711207,-1.473716 1.94049,-0.718559 3.497483,-1.370714 3.459985,-1.449223 -0.03749,-0.07856 -0.568641,-1.134767 -1.180317,-2.34723 -1.073339,-2.127561 -1.116449,-2.299562 -1.235709,-4.930163 l -0.123571,-2.72569 -2.224276,-0.956544 c -1.223352,-0.526101 -2.315268,-1.045412 -2.426479,-1.154017 -0.194784,-0.190216 0.890963,-3.11877 1.325319,-3.57474 0.124578,-0.130781 0.836556,0.04792 1.723361,0.432497 0.831096,0.360433 1.55936,0.655341 1.618365,0.655341 0.05901,0 0.107281,-0.48532 0.107281,-1.078498 0,-0.942523 0.407481,-1.760403 3.23217,-6.487469 1.777698,-2.97494 3.465289,-5.659213 3.750212,-5.965049 0.367102,-0.39406 0.800393,-0.556067 1.487194,-0.556067 0.907962,0 1.167842,0.195083 4.115468,3.089271 l 3.146315,3.089271 h 2.637849 2.63784 V 50.284672 c 0,-11.028664 0.06613,-13.880511 0.33667,-14.51958 0.185172,-0.437401 1.403529,-1.824004 2.707476,-3.081331 l 2.370795,-2.286065 h 2.978844 2.978845 l 2.47147,1.645511 c 1.359301,0.905029 2.508912,1.600115 2.554673,1.54464 0.33662,-0.40809 2.136859,-3.191991 2.136859,-3.304455 0,-0.07781 -1.558278,-2.474983 -3.462844,-5.32711 l -3.462856,-5.18568 h -1.966629 -1.966638 l -1.978483,3.911737 c -1.477087,2.920408 -2.139602,3.985146 -2.614254,4.201404 -0.904151,0.411966 -26.270747,0.411966 -27.174903,0 -0.474649,-0.216258 -1.137162,-1.280996 -2.614251,-4.201404 L 47.82828,19.770602 h -3.037367 -3.037367 l -4.270299,5.975342 c -2.348665,3.286436 -4.3174,6.09808 -4.374965,6.248093 -0.05757,0.150013 0.275367,0.641096 0.739854,1.091294 l 0.84452,0.818543 2.612939,-1.753089 2.612939,-1.753089 h 3.989594 3.989595 l 1.64112,1.593352 1.641119,1.593343 0.0681,13.104412 c 0.05604,10.785001 0.0069,13.250877 -0.277681,13.931979 -0.304722,0.729301 -0.606108,0.925831 -2.537996,1.654974 -6.85325,2.586577 -13.743228,7.304985 -17.916649,12.26971 -4.224251,5.025187 -7.272843,11.164189 -8.500713,17.118029 -1.335926,6.477794 -0.881021,14.124455 1.239638,20.837525 0.353332,1.11849 0.579553,2.28411 0.502714,2.59027 -0.210585,0.83903 -1.121483,1.55893 -1.972104,1.55857 -1.016215,-4.2e-4 -11.9890854,-6.55646 -12.4292176,-7.42617 -0.2116437,-0.41821 -0.3076091,-2.06747 -0.3101256,-5.32977 -0.00336,-4.402037 -0.038568,-4.768551 -0.5158638,-5.375329 -0.9809512,-1.247079 -3.1789284,-0.7004 -3.5669066,0.887161 -0.075586,0.309301 -0.1062198,3.615978 -0.068076,7.348178 l 0.069365,6.78581 7.6573246,4.76807 7.657325,4.76805 h 19.74452 19.744516 z m 0.09709,-75.201761 v -2.100697 h 4.201404 4.201413 v 2.100697 2.100707 H 63.90776 59.706356 Z m -4.201413,-8.402818 v -2.100706 h 2.100705 2.100708 v 2.100706 2.100707 h -2.100708 -2.100705 z m 12.60423,0 v -2.100706 h 2.100707 2.100707 v 2.100706 2.100707 H 70.20988 68.109173 Z m 10.627094,76.984669 v -7.41425 h 2.100707 2.100707 v 7.41425 7.41425 h 3.707127 c 2.538696,0 3.707127,-0.0859 3.707127,-0.27274 0,-0.15002 -0.289107,-1.20001 -0.642451,-2.33332 -0.584378,-1.8743 -0.634454,-2.35792 -0.553927,-5.34974 l 0.08855,-3.28915 2.041328,-3.02699 c 2.216604,-3.2869 3.096965,-4.06477 5.104021,-4.50981 4.868473,-1.07949 8.634513,3.82678 6.579853,8.57204 -0.30539,0.7053 -0.48232,1.40039 -0.39318,1.54463 0.1053,0.17037 1.84558,0.26226 4.96677,0.26226 h 4.80468 v 2.11363 2.11361 l -5.67755,-0.0747 -5.67755,-0.0747 -1.613129,-1.59929 c -1.946266,-1.92954 -2.006496,-2.34037 -0.735569,-5.01658 0.646467,-1.36129 0.833722,-2.02258 0.711068,-2.51125 -0.231343,-0.92177 -1.130254,-1.46208 -2.083949,-1.25261 -0.619155,0.13599 -1.062515,0.61606 -2.357887,2.55315 l -1.595349,2.38568 v 2.46063 c 0,2.10279 0.115462,2.81287 0.793974,4.88293 l 0.793986,2.42231 h 9.589065 9.58906 l 3.66541,-1.83575 3.66541,-1.83577 0.69768,-2.05672 c 0.60222,-1.77528 0.69893,-2.44563 0.70672,-4.89885 0.0142,-4.47685 -1.04427,-7.14284 -4.02564,-10.13932 -1.99662,-2.00671 -3.22733,-2.797959 -6.043,-3.885153 l -1.76203,-0.680346 -12.443353,-0.07258 -12.443343,-0.07258 -2.422665,-2.350853 c -2.739056,-2.657867 -3.188545,-3.412463 -2.714453,-4.557028 0.385691,-0.931137 0.720951,-1.113161 2.879085,-1.563144 0.94639,-0.197324 2.269438,-0.616707 2.940107,-0.931959 l 1.219403,-0.573188 -0.679122,-0.238835 c -0.818291,-0.287781 -0.819234,-0.307303 -0.121654,-2.523275 l 0.554675,-1.76201 1.921513,0.559785 1.921513,0.559784 0.596456,-1.022051 c 0.883602,-1.514105 1.121203,-2.280713 1.121203,-3.617502 v -1.203981 l -2.522658,1.103278 c -1.387463,0.606806 -2.641296,1.057761 -2.786284,1.002127 -0.320473,-0.122981 -1.66649,-3.329853 -1.506371,-3.588919 0.06268,-0.101357 1.621711,-0.829155 3.464603,-1.61734 l 3.35071,-1.433064 v -1.565003 c 0,-1.533843 -0.04493,-1.639627 -2.255437,-5.312371 L 88.80679,63.21628 86.551886,65.439249 c -1.240196,1.222625 -2.497812,2.346407 -2.794719,2.497288 -0.357005,0.181427 -2.859132,0.27433 -7.388296,0.27433 h -6.848472 l -2.556266,-2.515503 c -1.405948,-1.38353 -2.601784,-2.467866 -2.657418,-2.409635 -0.05567,0.05819 -1.11346,1.790228 -2.350732,3.848883 -2.164654,3.601678 -2.249599,3.798648 -2.249599,5.216561 v 1.473557 l 2.286056,0.944373 c 1.257336,0.519404 2.862299,1.197742 3.566586,1.507426 l 1.280529,0.563054 -0.786243,1.860116 c -0.432432,1.02306 -0.897454,1.85793 -1.033381,1.855259 -0.135927,-0.0028 -1.359281,-0.485012 -2.718563,-1.071856 l -2.471415,-1.067008 -0.07641,1.102876 c -0.0596,0.860521 0.113742,1.490707 0.78897,2.867708 1.450643,2.958359 1.205345,2.853135 4.110808,1.763298 1.459554,-0.547473 2.583625,-0.843707 2.709922,-0.71414 0.118694,0.121766 0.499452,0.978784 0.846135,1.904494 l 0.630326,1.683098 -0.92131,0.365496 c -2.04454,0.811071 -2.02726,0.738642 -0.303463,1.272263 0.883535,0.273508 2.078643,0.575972 2.655801,0.672135 0.691723,0.115256 1.218161,0.389446 1.544631,0.804476 0.484124,0.615455 0.495267,0.993188 0.495267,16.784092 v 16.15445 h 3.212841 3.21284 z M 74.534863,80.938659 v -2.100707 h 2.100707 2.100697 v 2.100707 2.100707 H 76.63557 74.534863 Z m -6.42569,-6.42569 v -2.100707 h 2.100707 2.100707 v 2.100707 2.100707 H 70.20988 68.109173 Z m 12.604232,0 v -2.100707 h 2.100707 2.100706 v 2.100707 2.100707 h -2.100706 -2.100707 z m 23.913355,8.37926 -1.41866,-1.372881 2.00617,-2.267478 c 8.3492,-9.436722 14.43758,-20.430648 16.6387,-30.044929 1.94528,-8.49673 1.26973,-15.765567 -2.09974,-22.59321 C 114.94727,16.875283 106.46218,9.1907348 97.370192,6.342419 94.454427,5.4289736 90.37793,4.8695629 88.127659,5.0740608 81.483086,5.6779244 75.993119,8.7888005 68.193306,16.369806 64.542374,19.918326 64.1281,20.159851 62.841163,19.490154 62.544266,19.335648 60.63314,17.579149 58.594216,15.586833 50.730954,7.9032934 45.278297,5.0802444 38.328589,5.0945639 30.378,5.1109103 23.055904,8.4728763 16.328081,15.196089 5.894358,25.622664 2.7565524,36.713855 6.3092256,50.609723 8.1099594,57.653082 12.691354,66.619906 18.10208,73.690989 c 0.590162,0.771259 1.073021,1.50411 1.073021,1.628548 0,0.124438 -0.675832,0.751093 -1.501848,1.392544 -1.122898,0.87201 -1.581936,1.099822 -1.819253,0.902872 C 15.679427,77.470068 14.628488,76.078327 13.518579,74.522179 7.039768,65.438595 3.0304496,56.540276 1.3247761,47.459148 0.61684681,43.690073 0.56864459,37.058503 1.2250837,33.743539 2.515616,27.226469 5.5274396,21.24683 10.550593,15.228809 16.642823,7.9299614 24.48103,3.0590931 32.89147,1.3455808 35.947935,0.72286753 40.864715,0.71562842 43.518567,1.3298883 49.748772,2.7720319 55.514303,6.4093551 61.92655,12.943005 l 1.849486,1.884496 2.351928,-2.303935 C 73.485061,5.3165852 79.82532,1.8111166 87.042875,0.95989948 92.367811,0.33189933 99.892225,2.1194935 105.48793,5.3419361 c 7.49243,4.3147357 13.92998,11.2301259 17.97094,19.3048489 1.42507,2.847615 2.29367,5.336282 3.01951,8.651283 0.75412,3.444165 0.75729,10.113771 0.007,14.152832 -1.79127,9.639399 -6.14812,19.00813 -13.27256,28.540595 -2.48217,3.321128 -6.6802,8.287851 -6.9973,8.278548 -0.0934,-0.0028 -0.80821,-0.622779 -1.58848,-1.37786 z"
       id="path262144" /></g></svg>
